<?xml version="1.0" encoding="utf-8"?>
<!-- Generator: Adobe Illustrator 21.0.0, SVG Export Plug-In . SVG Version: 6.00 Build 0)  -->
<svg version="1.1" id="Layer_1" xmlns="http://www.w3.org/2000/svg" xmlns:xlink="http://www.w3.org/1999/xlink" x="0px" y="0px"
	 viewBox="0 0 510 510" style="enable-background:new 0 0 510 510;" xml:space="preserve">
<style type="text/css">
	.st0{enable-background:new    ;}
	.st1{fill:#3AC6F4;}
	.st2{fill:#FFFFFF;}
	.st3{fill:none;stroke:#FFFFFF;stroke-width:7;stroke-linejoin:round;stroke-miterlimit:10;}
</style>
<g class="st0">
	<rect x="2.7" y="2.7" class="st1" width="504.6" height="504.6"/>
	<path class="st2" d="M504.3,5.7v498.6H5.7V5.7H504.3 M510.3-0.3h-6H5.7h-6v6v498.6v6h6h498.6h6v-6V5.7V-0.3L510.3-0.3z"/>
</g>
<circle class="st2" cx="255" cy="256.2" r="142"/>
<path id="underline" class="st3" d="M223.2,2.6C88.9,81.4,6.1,211.3,24.9,323.1C37.6,398.4,90,445,95.5,449.8
	c60.5,52.3,156.6,72.7,232.5,33.7c112.6-57.9,146.2-228.8,68.9-323.9c-47.9-59-136-85.9-203.6-62.5C88.1,133.4,16.9,297,77.9,483.4"
	/>
</svg>
